<svg width="21" height="21" viewBox="0 0 21 21" fill="none" xmlns="http://www.w3.org/2000/svg">
<path d="M3.05317 6.75829C3.74651 5.37766 4.81015 4.21705 6.1252 3.40618C7.44025 2.59531 8.95489 2.16614 10.4998 2.16663C12.7457 2.16663 14.6323 2.99246 16.0748 4.33746L13.6857 6.72746C12.8215 5.90163 11.7232 5.48079 10.4998 5.48079C8.329 5.48079 6.49151 6.94746 5.83734 8.91663C5.67067 9.41663 5.57567 9.94996 5.57567 10.5C5.57567 11.05 5.67067 11.5833 5.83734 12.0833C6.49234 14.0533 8.329 15.5191 10.4998 15.5191C11.6207 15.5191 12.5748 15.2233 13.3215 14.7233C13.7544 14.4383 14.1249 14.0685 14.4108 13.6362C14.6967 13.2039 14.892 12.7182 14.9848 12.2083H10.4998V8.98496H18.3482C18.4465 9.52996 18.4998 10.0983 18.4998 10.6891C18.4998 13.2275 17.5915 15.3641 16.0148 16.8141C14.6365 18.0875 12.7498 18.8333 10.4998 18.8333C9.40537 18.8337 8.32154 18.6185 7.31029 18.1998C6.29905 17.7812 5.38021 17.1674 4.6063 16.3935C3.8324 15.6196 3.21858 14.7008 2.79995 13.6895C2.38132 12.6783 2.16607 11.5944 2.1665 10.5C2.1665 9.15496 2.48817 7.88329 3.05317 6.75829Z" fill="white"/>
</svg>
